<svg width="20" height="20" viewBox="0 0 20 20" fill="none" xmlns="http://www.w3.org/2000/svg">
<path d="M9.99998 15.4167C12.9915 15.4167 15.4166 12.9916 15.4166 10C15.4166 7.00847 12.9915 4.58334 9.99998 4.58334C7.00844 4.58334 4.58331 7.00847 4.58331 10C4.58331 12.9916 7.00844 15.4167 9.99998 15.4167Z" stroke="#CFD1D4" stroke-width="1.25" stroke-linecap="round" stroke-linejoin="round"/>
<path d="M15.95 15.95L15.8417 15.8417M15.8417 4.15832L15.95 4.04999L15.8417 4.15832ZM4.05002 15.95L4.15835 15.8417L4.05002 15.95ZM10 1.73332V1.66666V1.73332ZM10 18.3333V18.2667V18.3333ZM1.73335 9.99999H1.66669H1.73335ZM18.3334 9.99999H18.2667H18.3334ZM4.15835 4.15832L4.05002 4.04999L4.15835 4.15832Z" stroke="#CFD1D4" stroke-width="1.66667" stroke-linecap="round" stroke-linejoin="round"/>
</svg>
